<svg width="82" height="19" viewBox="0 0 82 19" fill="none" xmlns="http://www.w3.org/2000/svg">
<g clip-path="url(#clip0_163_42)">
<path d="M74.2352 18.7361H77.0402L77.7057 10.8719L82 0.263888H79.2704L76.7835 7.04552H76.7312L75.3911 0.263888H72.4062L74.9022 10.8719L74.2352 18.7361ZM65.9895 12.6142L67.9875 3.48301H68.0382L68.5162 12.6142H65.9895ZM62.0272 18.7361H64.6292L65.4454 15.1211H68.6345V15.0687L68.8344 18.7361H71.6409L70.2991 0.263888H66.4983L62.0272 18.7361ZM55.8486 16.0973L56.9659 2.90278H58.3939C58.8539 2.90278 59.1951 3.04374 59.4175 3.32563C59.6402 3.60701 59.7247 4.06325 59.671 4.69754L58.8656 14.3072C58.8134 14.9431 58.6504 15.3978 58.3799 15.6791C58.2353 15.8234 58.0635 15.9353 57.8753 16.008C57.6869 16.0807 57.4863 16.1128 57.2856 16.102L55.8486 16.0973ZM52.8192 18.7361H57.1059C58.4994 18.7361 59.5783 18.3492 60.3427 17.5756C61.107 16.802 61.5518 15.667 61.6767 14.1706L62.4667 4.82948C62.5927 3.33412 62.3397 2.2012 61.7075 1.43072C61.0753 0.660252 60.0624 0.273427 58.6689 0.270248H54.3823L52.8192 18.7361ZM47.3569 16.3612C46.3865 16.3612 45.9531 15.7544 46.0566 14.5409L46.9096 4.45908C47.0121 3.24668 47.548 2.63995 48.5173 2.63888C49.4866 2.63783 49.92 3.24456 49.8176 4.45908L48.9646 14.5409C48.8621 15.7533 48.3261 16.3601 47.3569 16.3612ZM47.134 19C48.5111 19 49.5998 18.5952 50.4001 17.7854C51.2002 16.9758 51.6614 15.8323 51.7834 14.3549L52.6056 4.64508C52.7326 3.16666 52.4627 2.02314 51.7956 1.21452C51.1286 0.405901 50.1101 0.0010598 48.7401 0C47.3631 0 46.2744 0.404842 45.4741 1.21452C44.6739 2.02421 44.2127 3.16773 44.0909 4.64508L43.2655 14.3549C43.1405 15.8386 43.4094 16.9821 44.0724 17.7854C44.7353 18.5889 45.7559 18.9937 47.134 19ZM37.1852 18.7361H39.9918L41.3305 2.90278H44.2645L44.4874 0.263888H35.8112L35.5884 2.90278H38.5224L37.1852 18.7361ZM22.0569 18.7361H24.556L25.6965 5.24598H25.7487L27.9727 18.7361H30.8545L32.4207 0.263888H29.92L28.9855 11.3202H28.9349L27.1397 0.263888H23.6185L22.0569 18.7361ZM13.1641 18.7361H20.8197L21.0426 16.0973H16.195L16.6746 10.4236H20.5277L20.749 7.78949H16.8973L17.3108 2.90755H22.1584L22.3813 0.268658H14.7271L13.1641 18.7361ZM0 18.7361H2.44992L3.63184 4.74682H3.68871L4.54634 18.7361H6.88867L10.1163 4.74682H10.167L8.98355 18.7361H11.6348L13.1963 0.263888H9.19103L6.28618 13.4854H6.23546L5.56841 0.263888H1.56309L0 18.7361Z" fill="#005AFF"/>
</g>
<defs>
<clipPath id="clip0_163_42">
<rect width="82" height="19" fill="white"/>
</clipPath>
</defs>
</svg>
