<svg width="65" height="38" viewBox="0 0 65 38" fill="none" xmlns="http://www.w3.org/2000/svg">
<g filter="url(#filter0_dddd_154_1040)">
<rect x="3.70093" y="1.1416" width="58" height="26" rx="13" fill="#FAFAFA"/>
</g>
<g clip-path="url(#clip0_154_1040)">
<path d="M51.5251 19.6906H53.1328L53.5142 15.1376L55.9756 8.99616H54.4111L52.9857 12.9224H52.9557L52.1876 8.99616H50.4767L51.9074 15.1376L51.5251 19.6906ZM46.7988 16.1463L47.944 10.8599H47.9731L48.2471 16.1463H46.7988ZM44.5278 19.6906H46.0192L46.487 17.5977H48.3149V17.5673L48.4294 19.6906H50.038L49.2689 8.99616H47.0904L44.5278 19.6906ZM40.9863 18.1629L41.6268 10.5239H42.4452C42.7089 10.5239 42.9045 10.6055 43.0319 10.7688C43.1596 10.9317 43.2081 11.1958 43.1773 11.563L42.7156 17.1265C42.6857 17.4947 42.5923 17.7579 42.4372 17.9208C42.3543 18.0043 42.2559 18.0691 42.148 18.1112C42.0401 18.1533 41.9251 18.1718 41.81 18.1656L40.9863 18.1629ZM39.25 19.6906H41.707C42.5057 19.6906 43.1241 19.4666 43.5623 19.0187C44.0003 18.5709 44.2553 17.9137 44.3269 17.0474L44.7797 11.6394C44.8519 10.7737 44.7069 10.1178 44.3445 9.67169C43.9822 9.22563 43.4016 9.00168 42.6029 8.99984H40.1459L39.25 19.6906ZM36.1192 18.3156C35.563 18.3156 35.3146 17.9643 35.3739 17.2618L35.8628 11.425C35.9215 10.723 36.2287 10.3718 36.7843 10.3712C37.3398 10.3705 37.5882 10.7218 37.5296 11.425L37.0406 17.2618C36.9819 17.9637 36.6747 18.315 36.1192 18.3156ZM35.9914 19.8434C36.7807 19.8434 37.4047 19.609 37.8634 19.1402C38.3221 18.6715 38.5864 18.0095 38.6563 17.1541L39.1276 11.5326C39.2004 10.6767 39.0456 10.0147 38.6633 9.54653C38.281 9.07838 37.6972 8.844 36.912 8.84338C36.1227 8.84338 35.4987 9.07777 35.04 9.54653C34.5814 10.0153 34.317 10.6773 34.2472 11.5326L33.7741 17.1541C33.7024 18.0131 33.8566 18.6752 34.2366 19.1402C34.6166 19.6054 35.2015 19.8397 35.9914 19.8434ZM30.2891 19.6906H31.8977L32.665 10.5239H34.3467L34.4744 8.99616H29.5015L29.3738 10.5239H31.0555L30.2891 19.6906ZM21.618 19.6906H23.0504L23.7041 11.8805H23.734L25.0087 19.6906H26.6605L27.5582 8.99616H26.1249L25.5892 15.3972H25.5602L24.5313 8.99616H22.513L21.618 19.6906ZM16.5209 19.6906H20.9088L21.0366 18.1629H18.2581L18.5329 14.8781H20.7414L20.8683 13.3531H18.6606L18.8976 10.5267H21.6761L21.8039 8.99892H17.4167L16.5209 19.6906ZM8.97559 19.6906H10.3798L11.0573 11.5915H11.0898L11.5814 19.6906H12.924L14.7739 11.5915H14.803L14.1247 19.6906H15.6443L16.5393 8.99616H14.2436L12.5786 16.6507H12.5496L12.1672 8.99616H9.8715L8.97559 19.6906Z" fill="#005AFF"/>
</g>
<defs>
<filter id="filter0_dddd_154_1040" x="0.700928" y="0.141602" width="64" height="37" filterUnits="userSpaceOnUse" color-interpolation-filters="sRGB">
<feFlood flood-opacity="0" result="BackgroundImageFix"/>
<feColorMatrix in="SourceAlpha" type="matrix" values="0 0 0 0 0 0 0 0 0 0 0 0 0 0 0 0 0 0 127 0" result="hardAlpha"/>
<feOffset/>
<feGaussianBlur stdDeviation="0.5"/>
<feColorMatrix type="matrix" values="0 0 0 0 0 0 0 0 0 0 0 0 0 0 0 0 0 0 0.04 0"/>
<feBlend mode="normal" in2="BackgroundImageFix" result="effect1_dropShadow_154_1040"/>
<feColorMatrix in="SourceAlpha" type="matrix" values="0 0 0 0 0 0 0 0 0 0 0 0 0 0 0 0 0 0 127 0" result="hardAlpha"/>
<feOffset dy="2"/>
<feGaussianBlur stdDeviation="1"/>
<feColorMatrix type="matrix" values="0 0 0 0 0 0 0 0 0 0 0 0 0 0 0 0 0 0 0.04 0"/>
<feBlend mode="normal" in2="effect1_dropShadow_154_1040" result="effect2_dropShadow_154_1040"/>
<feColorMatrix in="SourceAlpha" type="matrix" values="0 0 0 0 0 0 0 0 0 0 0 0 0 0 0 0 0 0 127 0" result="hardAlpha"/>
<feOffset dy="4"/>
<feGaussianBlur stdDeviation="1"/>
<feColorMatrix type="matrix" values="0 0 0 0 0 0 0 0 0 0 0 0 0 0 0 0 0 0 0.02 0"/>
<feBlend mode="normal" in2="effect2_dropShadow_154_1040" result="effect3_dropShadow_154_1040"/>
<feColorMatrix in="SourceAlpha" type="matrix" values="0 0 0 0 0 0 0 0 0 0 0 0 0 0 0 0 0 0 127 0" result="hardAlpha"/>
<feOffset dy="7"/>
<feGaussianBlur stdDeviation="1.5"/>
<feColorMatrix type="matrix" values="0 0 0 0 0 0 0 0 0 0 0 0 0 0 0 0 0 0 0.01 0"/>
<feBlend mode="normal" in2="effect3_dropShadow_154_1040" result="effect4_dropShadow_154_1040"/>
<feBlend mode="normal" in="SourceGraphic" in2="effect4_dropShadow_154_1040" result="shape"/>
</filter>
<clipPath id="clip0_154_1040">
<rect width="47" height="11" fill="white" transform="translate(8.97559 8.84338)"/>
</clipPath>
</defs>
</svg>
