<svg width="30" height="23" viewBox="0 0 30 23" fill="none" xmlns="http://www.w3.org/2000/svg">
<g id="Frame 513072">
<rect id="Rectangle 553" width="30" height="23" rx="4" fill="#C6CFC0"/>
<rect id="Rectangle 554" x="1" y="1" width="28" height="21" rx="4" fill="#535353"/>
<path id="Vector" d="M0.500012 18.4999C0.494096 20.5044 2.70974 22.4943 4.82172 22.4999H6.0049L6.02856 15.0037L0.5 14.9868L0.500012 18.4999Z" fill="#C6CFC0"/>
<path id="Vector_2" d="M4.87496 0.5C3.8515 0.5 2.72174 1.32059 2 2C1.27234 2.68503 0.5 3.52861 0.5 4.5V7.01364L6.05222 7.03048L6.06405 0.5H4.87496Z" fill="#C6CFC0"/>
<path id="Vector_3" d="M10.1401 14.0324C10.1401 12.9993 10.5365 11.9998 11.2464 11.2025C10.5424 10.3995 10.1578 9.40006 10.1578 8.3669C10.1578 8.08616 10.1933 7.81102 10.2466 7.5415L6.56688 7.53027L6.54321 14.5209L10.1874 14.5321C10.1697 14.3693 10.1342 14.2065 10.1342 14.038L10.1401 14.0324Z" fill="#C6CFC0"/>
<path id="Vector_4" d="M0.523139 7.50353L0.5 14.4941L6.03065 14.5091L6.05379 7.51853L0.523139 7.50353Z" fill="#C6CFC0"/>
<path id="Vector_5" d="M19.2802 7.06972L23.4923 7.08095L23.51 0.499999L15.2928 0.477539L15.281 3.98149C17.1741 4.15555 18.73 5.39646 19.2742 7.06972H19.2802Z" fill="#C6CFC0"/>
<path id="Vector_6" d="M14.7663 3.94784L14.7781 0.5L6.5905 0.471925L6.57275 7.03046L10.4003 7.04169C10.9919 5.26736 12.7135 3.9703 14.7663 3.94223V3.94784Z" fill="#C6CFC0"/>
<path id="Vector_7" d="M25.5688 14.5715L25.5924 7.58081L19.4221 7.56396C19.4754 7.83348 19.505 8.10862 19.505 8.38937C19.505 9.42252 19.1086 10.422 18.3987 11.2193C19.1027 12.0223 19.4872 13.0217 19.4872 14.0549C19.4872 14.2233 19.4517 14.3862 19.434 14.549L25.5688 14.5658V14.5715Z" fill="#C6CFC0"/>
<path id="Vector_8" d="M24 22.4999H25C26.0175 22.4999 27.2783 21.6849 28 20.9999C28.7277 20.3149 29.4882 19.3216 29.4882 18.3502L29.5 15.0542H23.9892L23.9656 21.9999L24 22.4999Z" fill="#C6CFC0"/>
<path id="Vector_9" d="M10.2643 15.0205L6.54909 15.0093L6.53722 22.2674L14.7189 22.2899L14.719 18.4681C12.536 18.4232 10.7257 16.9633 10.2643 15.0149V15.0205Z" fill="#C6CFC0"/>
<path id="Vector_10" d="M26.1132 7.58019L26.0901 14.5708L29.4769 14.5794L29.5 7.58878L26.1132 7.58019Z" fill="#C6CFC0"/>
<path id="Vector_11" d="M24.5 0.5H24L24.0188 7.08671L29 7.10355V4.71158C29.0118 3.74018 28.6155 2.82494 27.8937 2.1343C27.172 1.44366 26.5235 0.5 25.5 0.5H24.5Z" fill="#C6CFC0"/>
<path id="Vector_12" d="M15.2342 18.4403L15.2217 22.5001L23.4389 22.5226L23.4632 15.0601L19.3576 15.0488C18.908 16.8849 17.2574 18.2662 15.2342 18.4459V18.4403Z" fill="#C6CFC0"/>
<path id="Vector_13" d="M18.9725 14.0547C18.9725 13.0721 18.5821 12.1232 17.8662 11.382L17.7006 11.2136L17.8662 11.0451C18.588 10.3096 18.9843 9.36624 18.9903 8.378C18.9962 6.20501 17.1386 4.43068 14.8491 4.41945C12.5597 4.41383 10.6902 6.17693 10.6784 8.34993C10.6784 9.33255 11.0689 10.2815 11.7847 11.0227L11.9444 11.1911L11.7847 11.3596C11.0629 12.0951 10.6666 13.044 10.6607 14.0267C10.6547 16.1997 12.5123 17.974 14.8018 17.9852C17.0913 17.9908 18.9607 16.2277 18.9725 14.0547Z" fill="#C6CFC0"/>
<rect id="Rectangle 555" x="1.25" y="1.25" width="27.5" height="20.5" rx="3.75" stroke="#535353" stroke-width="0.5"/>
</g>
</svg>
