<svg width="66" height="19" viewBox="0 0 66 19" fill="none" xmlns="http://www.w3.org/2000/svg">
<g clip-path="url(#clip0_163_38)">
<path d="M55.5903 0.491992V18.5905H66.02V17.3975H58.1005V8.36649H65.7796V7.17349H58.1005V1.68449H66.02V0.491992H55.5903ZM44.701 0.455492C43.9216 0.682992 43.1938 1.00149 42.5178 1.41099C41.8418 1.82099 41.2265 2.31349 40.6724 2.88999C40.1182 3.46599 39.6445 4.10499 39.2512 4.80699C38.8575 5.50899 38.5522 6.26549 38.3344 7.07699C38.1166 7.88849 38.0079 8.72849 38.0079 9.59649C38.0079 10.465 38.1166 11.2985 38.3344 12.0975C38.5522 12.897 38.8575 13.6455 39.2512 14.343C39.6445 15.041 40.1182 15.676 40.6724 16.248C41.2265 16.82 41.8414 17.313 42.5178 17.727C43.1943 18.141 43.922 18.4595 44.701 18.6825C45.4805 18.9055 46.2944 19.017 47.1421 19.017C48.5477 19.017 49.847 18.7615 51.039 18.25C52.2311 17.739 53.2777 17.029 54.1795 16.12L53.5261 15.2315C53.1747 15.6375 52.7716 15.9985 52.3172 16.3145C51.8623 16.631 51.3791 16.8985 50.8673 17.118C50.3555 17.337 49.8244 17.5035 49.274 17.617C48.7241 17.731 48.1812 17.7875 47.6464 17.7875C46.5305 17.7875 45.5412 17.5705 44.678 17.1365C43.8143 16.7025 43.0908 16.112 42.5061 15.3655C41.9213 14.619 41.4782 13.751 41.1767 12.761C40.8746 11.771 40.7241 10.716 40.7241 9.59649C40.7241 8.45249 40.877 7.38149 41.1828 6.38349C41.4881 5.38549 41.9354 4.51349 42.5239 3.76649C43.1124 3.01999 43.8378 2.43199 44.7015 2.00149C45.5647 1.57149 46.5545 1.35649 47.6699 1.35649C48.1892 1.35649 48.7053 1.41549 49.2171 1.53299C49.7289 1.65049 50.2219 1.80899 50.6956 2.00749C51.1693 2.20649 51.62 2.44349 52.0481 2.71949C52.4757 2.99549 52.8657 3.29149 53.2171 3.60799L53.8587 2.70749C52.98 1.89599 51.9733 1.26099 50.8386 0.802492C49.704 0.343992 48.4719 0.114992 47.1425 0.114992C46.2939 0.114492 45.4805 0.228492 44.701 0.455492ZM36.4475 0.491992H33.9261V18.5905H36.4475V0.491992ZM20.4575 17.1175C19.6554 16.6875 18.9846 16.0995 18.4459 15.3525C17.9073 14.606 17.5004 13.7275 17.2252 12.7175C16.95 11.7075 16.8126 10.622 16.8126 9.46149C16.8126 8.30949 16.9481 7.22999 17.2196 6.22399C17.4905 5.21799 17.896 4.34549 18.4346 3.60699C18.9733 2.86849 19.6417 2.28649 20.4405 1.86049C21.2388 1.43449 22.1693 1.22149 23.2315 1.22149C24.2782 1.22149 25.2031 1.43449 26.0051 1.86049C26.8072 2.28649 27.478 2.86899 28.0166 3.60699C28.5553 4.34549 28.9622 5.21799 29.2374 6.22399C29.5126 7.22999 29.6499 8.30949 29.6499 9.46149C29.6499 10.622 29.5102 11.707 29.2317 12.7175C28.9528 13.7275 28.5421 14.606 27.9997 15.3525C27.4573 16.099 26.7865 16.6875 25.9882 17.1175C25.1899 17.5475 24.2707 17.7625 23.2315 17.7625C22.1844 17.763 21.26 17.548 20.4575 17.1175ZM25.6382 18.6025C26.4097 18.3755 27.1318 18.057 27.8045 17.647C28.4767 17.2375 29.0901 16.7445 29.6438 16.168C30.1975 15.592 30.6712 14.953 31.065 14.251C31.4582 13.5495 31.764 12.7945 31.9818 11.987C32.1996 11.1795 32.3083 10.338 32.3083 9.46149C32.3083 8.60149 32.1996 7.76949 31.9818 6.96649C31.764 6.16299 31.4582 5.41299 31.065 4.71499C30.6712 4.01699 30.1975 3.38049 29.6438 2.80399C29.0897 2.22799 28.4767 1.73499 27.8045 1.32499C27.1318 0.915992 26.4097 0.599492 25.6382 0.376492C24.8662 0.153492 24.0642 0.0419922 23.2315 0.0419922C22.3909 0.0419922 21.5827 0.155992 20.8074 0.382992C20.0317 0.610492 19.3059 0.926492 18.6299 1.33249C17.9539 1.73849 17.3386 2.22899 16.7844 2.80499C16.2303 3.38099 15.7547 4.01799 15.3576 4.71599C14.9601 5.41399 14.6529 6.16449 14.4351 6.96749C14.2173 7.77099 14.1087 8.60249 14.1087 9.46249C14.1087 10.339 14.2173 11.1805 14.4351 11.988C14.6529 12.7955 14.9606 13.55 15.3576 14.252C15.7547 14.954 16.2303 15.593 16.7844 16.169C17.3381 16.745 17.9534 17.238 18.6299 17.648C19.3059 18.058 20.0317 18.3765 20.8074 18.6035C21.5827 18.8305 22.3909 18.9445 23.2315 18.9445C24.0642 18.9435 24.8662 18.8295 25.6382 18.6025ZM6.82843 18.5905H9.53335L8.89123 16.9475L15.4014 0.491992H14.1063L8.26086 15.2555L2.65627 0.491992H0.0205078L6.82843 18.5905Z" fill="#FF0078"/>
<path d="M64.0891 15.1245C64.1352 14.9935 64.2016 14.88 64.2881 14.784C64.3747 14.688 64.4796 14.6125 64.6028 14.558C64.7261 14.5035 64.8658 14.476 65.021 14.4745C65.0958 14.4745 65.1702 14.482 65.244 14.4975C65.3179 14.513 65.3894 14.5345 65.458 14.562C65.5267 14.5895 65.5921 14.622 65.6533 14.6595C65.7144 14.697 65.7704 14.737 65.8212 14.78L65.9139 14.658C65.7873 14.549 65.6415 14.4635 65.4773 14.4005C65.3132 14.338 65.1358 14.3065 64.9453 14.3065C64.823 14.3065 64.7054 14.321 64.5934 14.3495C64.481 14.378 64.3761 14.419 64.2787 14.4725C64.1813 14.526 64.0924 14.59 64.0124 14.6645C63.9325 14.7395 63.8643 14.823 63.8073 14.9155C63.7504 15.008 63.7067 15.108 63.6752 15.216C63.6436 15.324 63.6281 15.4365 63.6281 15.5545C63.6281 15.6955 63.6451 15.824 63.6785 15.9405C63.7119 16.057 63.7598 16.162 63.8215 16.2555C63.8831 16.349 63.9569 16.4305 64.043 16.4995C64.1291 16.569 64.2251 16.6265 64.3305 16.673C64.4363 16.719 64.5497 16.754 64.671 16.777C64.7924 16.8 64.9185 16.8115 65.0497 16.8115H65.9224V15.2225H65.5606V16.6495H65.1984C65.0163 16.6495 64.8526 16.6235 64.7068 16.572C64.561 16.5205 64.4372 16.4465 64.3356 16.351C64.234 16.2555 64.1564 16.14 64.1018 16.0055C64.0473 15.871 64.02 15.7205 64.02 15.5545C64.02 15.3985 64.043 15.2555 64.0891 15.1245ZM62.4285 14.905L63.0387 16.3305H61.8302L62.4285 14.905ZM62.5857 14.3575H62.199L62.3312 14.6725L61.4303 16.811H61.6302L61.7624 16.4925H63.1064L63.2419 16.811H63.6239L62.5857 14.3575ZM59.1817 14.3575H58.7588L58.891 14.5125V16.811H59.0594V14.709L59.9221 15.712L60.7901 14.712V16.811H61.1523V14.3575H60.7901V14.46L60.0214 15.3445L59.1817 14.3575Z" fill="#FF0078"/>
<path d="M9.54602 1.09898C9.58366 1.12648 9.61376 1.16348 9.63587 1.20948C9.65798 1.25548 9.67398 1.30848 9.68291 1.36798C9.69185 1.42748 9.6975 1.48998 9.69938 1.55548V1.62798H9.02715C9.02809 1.55348 9.03609 1.48198 9.0502 1.41298C9.06431 1.34398 9.08689 1.28298 9.117 1.23048C9.14711 1.17798 9.18568 1.13648 9.23225 1.10498C9.27882 1.07348 9.3348 1.05748 9.40066 1.05748C9.45993 1.05748 9.50839 1.07148 9.54602 1.09898ZM9.11559 0.972479C9.02809 1.01798 8.9547 1.07898 8.89449 1.15498C8.83475 1.23098 8.78912 1.31848 8.7576 1.41748C8.72655 1.51648 8.71055 1.61898 8.71055 1.72448C8.71055 1.85148 8.72702 1.96498 8.75995 2.06348C8.79288 2.16248 8.84368 2.24648 8.91331 2.31498C8.98293 2.38348 9.07137 2.43598 9.17862 2.47198C9.28635 2.50798 9.4143 2.52598 9.56249 2.52598H9.8979V2.38748H9.56719C9.46746 2.38748 9.38373 2.36698 9.31552 2.32598C9.2473 2.28498 9.19132 2.23348 9.14852 2.17148C9.10571 2.10948 9.07466 2.04198 9.05537 1.96898C9.03656 1.89598 9.02668 1.82798 9.02668 1.76498H10.0056V1.68548C10.0056 1.58098 9.99527 1.48148 9.97457 1.38748C9.95388 1.29348 9.92001 1.21048 9.87296 1.13848C9.82592 1.06648 9.76477 1.00948 9.68997 0.966979C9.61517 0.924979 9.52391 0.903479 9.41571 0.903479C9.30328 0.903979 9.20309 0.926979 9.11559 0.972479ZM7.59848 0.0164795H7.27765V2.52598H7.59848V1.19948C7.68833 1.15548 7.76924 1.12648 7.84075 1.11248C7.91225 1.09848 7.97482 1.09148 8.02892 1.09148C8.06184 1.09148 8.08913 1.09798 8.11077 1.11098C8.13241 1.12398 8.14934 1.14048 8.16157 1.16098C8.17381 1.18098 8.18227 1.20448 8.18698 1.22998C8.19168 1.25598 8.19403 1.28098 8.19403 1.30598V2.52598H8.51674V1.25348C8.51674 1.13098 8.4904 1.04198 8.43818 0.986979C8.38596 0.931979 8.30976 0.904479 8.21003 0.904479C8.16957 0.904479 8.12817 0.906979 8.08537 0.911979C8.04256 0.916979 7.99599 0.925979 7.94612 0.938979C7.89626 0.951979 7.84263 0.968979 7.78571 0.989479C7.72832 1.01048 7.66622 1.03648 7.59801 1.06798V0.0164795H7.59848ZM7.12477 0.935979H6.91026V0.319979L6.60495 0.417979V0.935979H6.39844V1.08798H6.60495V2.52598H6.91026V1.08798H7.12477V0.935979Z" fill="#FF0078"/>
</g>
<defs>
<clipPath id="clip0_163_38">
<rect width="66" height="19" fill="white"/>
</clipPath>
</defs>
</svg>
