<svg width="65" height="38" viewBox="0 0 65 38" fill="none" xmlns="http://www.w3.org/2000/svg">
<g filter="url(#filter0_dddd_154_481)">
<rect x="3.7251" y="1.29834" width="58" height="26" rx="13" fill="#FAFAFA"/>
</g>
<g clip-path="url(#clip0_154_481)">
<path d="M47.1007 8.37064V19.8013H53.7377V19.0478H48.698V13.344H53.5848V12.5905H48.698V9.12379H53.7377V8.37064H47.1007ZM40.1711 8.34758C39.6751 8.49127 39.212 8.69243 38.7818 8.95106C38.3516 9.21 37.96 9.52106 37.6074 9.88516C37.2548 10.249 36.9533 10.6525 36.703 11.0959C36.4525 11.5393 36.2582 12.0171 36.1196 12.5296C35.981 13.0421 35.9118 13.5726 35.9118 14.1208C35.9118 14.6694 35.981 15.1958 36.1196 15.7004C36.2582 16.2054 36.4525 16.6781 36.703 17.1186C36.9533 17.5595 37.2548 17.9605 37.6074 18.3218C37.96 18.6831 38.3513 18.9944 38.7818 19.2559C39.2123 19.5174 39.6754 19.7185 40.1711 19.8594C40.6671 20.0002 41.185 20.0706 41.7245 20.0706C42.619 20.0706 43.4458 19.9093 44.2044 19.5862C44.9629 19.2635 45.629 18.8151 46.2029 18.241L45.7871 17.6798C45.5634 17.9362 45.3069 18.1642 45.0177 18.3638C44.7282 18.5637 44.4208 18.7326 44.0951 18.8713C43.7694 19.0096 43.4314 19.1147 43.0812 19.1864C42.7312 19.2584 42.3858 19.2941 42.0454 19.2941C41.3353 19.2941 40.7058 19.1571 40.1564 18.883C39.6068 18.6088 39.1464 18.2359 38.7743 17.7644C38.4022 17.293 38.1202 16.7447 37.9283 16.1195C37.7361 15.4942 37.6403 14.8279 37.6403 14.1208C37.6403 13.3983 37.7376 12.7219 37.9322 12.0916C38.1265 11.4613 38.4112 10.9105 38.7857 10.4387C39.1602 9.96727 39.6218 9.5959 40.1714 9.324C40.7207 9.05243 41.3506 8.91664 42.0604 8.91664C42.3909 8.91664 42.7192 8.9539 43.0449 9.02811C43.3706 9.10232 43.6844 9.20243 43.9858 9.32779C44.2873 9.45348 44.5741 9.60316 44.8465 9.77748C45.1186 9.95179 45.3668 10.1387 45.5904 10.3386L45.9987 9.7699C45.4395 9.25737 44.7989 8.85632 44.0768 8.56674C43.3548 8.27716 42.5708 8.13253 41.7248 8.13253C41.1847 8.13222 40.6671 8.20422 40.1711 8.34758ZM34.9189 8.37064H33.3143V19.8013H34.9189V8.37064ZM24.7434 18.871C24.233 18.5994 23.8061 18.228 23.4633 17.7562C23.1205 17.2847 22.8616 16.7299 22.6865 16.092C22.5114 15.4541 22.4239 14.7685 22.4239 14.0356C22.4239 13.308 22.5102 12.6262 22.6829 11.9908C22.8553 11.3555 23.1134 10.8044 23.4561 10.338C23.7989 9.87158 24.2243 9.504 24.7326 9.23495C25.2406 8.9659 25.8327 8.83137 26.5087 8.83137C27.1748 8.83137 27.7633 8.9659 28.2737 9.23495C28.7841 9.504 29.211 9.8719 29.5538 10.338C29.8965 10.8044 30.1555 11.3555 30.3306 11.9908C30.5057 12.6262 30.5931 13.308 30.5931 14.0356C30.5931 14.7685 30.5042 15.4538 30.327 16.092C30.1495 16.7299 29.8881 17.2847 29.543 17.7562C29.1978 18.2277 28.7709 18.5994 28.2629 18.871C27.7549 19.1425 27.17 19.2783 26.5087 19.2783C25.8423 19.2786 25.2541 19.1428 24.7434 18.871ZM28.0402 19.8088C28.5312 19.6655 28.9907 19.4643 29.4187 19.2054C29.8465 18.9467 30.2369 18.6354 30.5892 18.2713C30.9416 17.9075 31.243 17.5039 31.4936 17.0605C31.7439 16.6175 31.9384 16.1406 32.0771 15.6306C32.2157 15.1206 32.2848 14.5892 32.2848 14.0356C32.2848 13.4924 32.2157 12.967 32.0771 12.4598C31.9384 11.9523 31.7439 11.4786 31.4936 11.0378C31.243 10.597 30.9416 10.195 30.5892 9.83085C30.2366 9.46706 29.8465 9.15569 29.4187 8.89674C28.9907 8.63843 28.5312 8.43853 28.0402 8.29769C27.549 8.15685 27.0385 8.08643 26.5087 8.08643C25.9737 8.08643 25.4594 8.15843 24.9661 8.30179C24.4724 8.44548 24.0105 8.64506 23.5804 8.90148C23.1502 9.1579 22.7586 9.46769 22.406 9.83148C22.0533 10.1953 21.7507 10.5976 21.498 11.0384C21.2451 11.4793 21.0496 11.9533 20.911 12.4604C20.7724 12.9679 20.7032 13.4931 20.7032 14.0362C20.7032 14.5898 20.7724 15.1213 20.911 15.6313C21.0496 16.1413 21.2454 16.6178 21.498 17.0612C21.7507 17.5045 22.0533 17.9081 22.406 18.2719C22.7583 18.6357 23.1499 18.9471 23.5804 19.206C24.0105 19.465 24.4724 19.6661 24.9661 19.8095C25.4594 19.9528 25.9737 20.0248 26.5087 20.0248C27.0385 20.0242 27.549 19.9522 28.0402 19.8088ZM16.0704 19.8013H17.7917L17.383 18.7636L21.5259 8.37064H20.7017L16.9819 17.695L13.4153 8.37064H11.738L16.0704 19.8013Z" fill="#FF0078"/>
<path d="M52.5092 17.6122C52.5386 17.5295 52.5808 17.4578 52.6358 17.3972C52.6909 17.3365 52.7577 17.2888 52.8361 17.2544C52.9146 17.22 53.0035 17.2026 53.1022 17.2017C53.1498 17.2017 53.1971 17.2064 53.2441 17.2162C53.2911 17.226 53.3366 17.2396 53.3804 17.2569C53.4241 17.2743 53.4657 17.2948 53.5046 17.3185C53.5435 17.3422 53.5791 17.3675 53.6115 17.3946L53.6704 17.3176C53.5899 17.2487 53.4971 17.1947 53.3926 17.1549C53.2882 17.1155 53.1753 17.0956 53.0541 17.0956C52.9762 17.0956 52.9014 17.1047 52.8301 17.1227C52.7586 17.1407 52.6918 17.1666 52.6299 17.2004C52.5679 17.2342 52.5113 17.2746 52.4604 17.3217C52.4095 17.3691 52.3661 17.4218 52.3299 17.4802C52.2937 17.5386 52.2658 17.6018 52.2458 17.67C52.2257 17.7382 52.2158 17.8093 52.2158 17.8838C52.2158 17.9728 52.2266 18.054 52.2479 18.1276C52.2691 18.2012 52.2997 18.2675 52.3389 18.3265C52.3781 18.3856 52.4251 18.4371 52.4799 18.4806C52.5347 18.5245 52.5957 18.5608 52.6628 18.5902C52.7301 18.6193 52.8023 18.6414 52.8795 18.6559C52.9568 18.6704 53.037 18.6777 53.1205 18.6777H53.6758V17.6741H53.4456V18.5754H53.2151C53.0993 18.5754 52.9951 18.5589 52.9023 18.5264C52.8095 18.4939 52.7307 18.4472 52.6661 18.3868C52.6014 18.3265 52.552 18.2536 52.5173 18.1686C52.4826 18.0837 52.4652 17.9886 52.4652 17.8838C52.4652 17.7853 52.4799 17.6949 52.5092 17.6122ZM51.4525 17.4736L51.8408 18.3739H51.0717L51.4525 17.4736ZM51.5525 17.1278H51.3064L51.3905 17.3267L50.8172 18.6774H50.9445L51.0286 18.4762H51.8839L51.9701 18.6774H52.2132L51.5525 17.1278ZM49.3863 17.1278H49.1172L49.2013 17.2257V18.6774H49.3085V17.3498L49.8575 17.9833L50.4098 17.3517V18.6774H50.6403V17.1278H50.4098V17.1925L49.9207 17.7512L49.3863 17.1278Z" fill="#FF0078"/>
<path d="M17.7996 8.754C17.8236 8.77137 17.8427 8.79473 17.8568 8.82379C17.8709 8.85284 17.8811 8.88631 17.8868 8.92389C17.8924 8.96147 17.896 9.00094 17.8972 9.04231V9.0881H17.4694C17.47 9.04105 17.4751 8.99589 17.4841 8.95231C17.4931 8.90873 17.5075 8.87021 17.5266 8.83705C17.5458 8.80389 17.5703 8.77768 17.6 8.75779C17.6296 8.73789 17.6652 8.72779 17.7071 8.72779C17.7449 8.72779 17.7757 8.73663 17.7996 8.754ZM17.5257 8.6741C17.47 8.70284 17.4233 8.74137 17.385 8.78937C17.347 8.83737 17.318 8.89263 17.2979 8.95515C17.2782 9.01768 17.268 9.08242 17.268 9.14905C17.268 9.22926 17.2785 9.30094 17.2994 9.36315C17.3204 9.42568 17.3527 9.47873 17.397 9.522C17.4413 9.56526 17.4976 9.59842 17.5658 9.62115C17.6344 9.64389 17.7158 9.65526 17.8101 9.65526H18.0236V9.56779H17.8131C17.7496 9.56779 17.6964 9.55484 17.653 9.52894C17.6095 9.50305 17.5739 9.47052 17.5467 9.43137C17.5194 9.39221 17.4997 9.34958 17.4874 9.30347C17.4754 9.25737 17.4691 9.21442 17.4691 9.17463H18.0921V9.12442C18.0921 9.05842 18.0855 8.99558 18.0724 8.93621C18.0592 8.87684 18.0376 8.82442 18.0077 8.77894C17.9778 8.73347 17.9388 8.69747 17.8912 8.67063C17.8436 8.6441 17.7856 8.63052 17.7167 8.63052C17.6452 8.63084 17.5814 8.64537 17.5257 8.6741ZM16.5603 8.07031H16.3561V9.65526H16.5603V8.81747C16.6175 8.78968 16.669 8.77137 16.7145 8.76252C16.76 8.75368 16.7998 8.74926 16.8342 8.74926C16.8552 8.74926 16.8725 8.75337 16.8863 8.76158C16.9001 8.76979 16.9108 8.78021 16.9186 8.79315C16.9264 8.80579 16.9318 8.82063 16.9348 8.83673C16.9378 8.85315 16.9393 8.86894 16.9393 8.88473V9.65526H17.1446V8.85158C17.1446 8.77421 17.1279 8.718 17.0946 8.68326C17.0614 8.64852 17.0129 8.63115 16.9495 8.63115C16.9237 8.63115 16.8974 8.63273 16.8701 8.63589C16.8429 8.63905 16.8133 8.64473 16.7815 8.65294C16.7498 8.66115 16.7157 8.67189 16.6794 8.68484C16.6429 8.6981 16.6034 8.71452 16.56 8.73442V8.07031H16.5603ZM16.2588 8.65105H16.1223V8.262L15.928 8.32389V8.65105H15.7966V8.74705H15.928V9.65526H16.1223V8.74705H16.2588V8.65105Z" fill="#FF0078"/>
</g>
<defs>
<filter id="filter0_dddd_154_481" x="0.725098" y="0.29834" width="64" height="37" filterUnits="userSpaceOnUse" color-interpolation-filters="sRGB">
<feFlood flood-opacity="0" result="BackgroundImageFix"/>
<feColorMatrix in="SourceAlpha" type="matrix" values="0 0 0 0 0 0 0 0 0 0 0 0 0 0 0 0 0 0 127 0" result="hardAlpha"/>
<feOffset/>
<feGaussianBlur stdDeviation="0.5"/>
<feColorMatrix type="matrix" values="0 0 0 0 0 0 0 0 0 0 0 0 0 0 0 0 0 0 0.04 0"/>
<feBlend mode="normal" in2="BackgroundImageFix" result="effect1_dropShadow_154_481"/>
<feColorMatrix in="SourceAlpha" type="matrix" values="0 0 0 0 0 0 0 0 0 0 0 0 0 0 0 0 0 0 127 0" result="hardAlpha"/>
<feOffset dy="2"/>
<feGaussianBlur stdDeviation="1"/>
<feColorMatrix type="matrix" values="0 0 0 0 0 0 0 0 0 0 0 0 0 0 0 0 0 0 0.04 0"/>
<feBlend mode="normal" in2="effect1_dropShadow_154_481" result="effect2_dropShadow_154_481"/>
<feColorMatrix in="SourceAlpha" type="matrix" values="0 0 0 0 0 0 0 0 0 0 0 0 0 0 0 0 0 0 127 0" result="hardAlpha"/>
<feOffset dy="4"/>
<feGaussianBlur stdDeviation="1"/>
<feColorMatrix type="matrix" values="0 0 0 0 0 0 0 0 0 0 0 0 0 0 0 0 0 0 0.02 0"/>
<feBlend mode="normal" in2="effect2_dropShadow_154_481" result="effect3_dropShadow_154_481"/>
<feColorMatrix in="SourceAlpha" type="matrix" values="0 0 0 0 0 0 0 0 0 0 0 0 0 0 0 0 0 0 127 0" result="hardAlpha"/>
<feOffset dy="7"/>
<feGaussianBlur stdDeviation="1.5"/>
<feColorMatrix type="matrix" values="0 0 0 0 0 0 0 0 0 0 0 0 0 0 0 0 0 0 0.01 0"/>
<feBlend mode="normal" in2="effect3_dropShadow_154_481" result="effect4_dropShadow_154_481"/>
<feBlend mode="normal" in="SourceGraphic" in2="effect4_dropShadow_154_481" result="shape"/>
</filter>
<clipPath id="clip0_154_481">
<rect width="42" height="12" fill="white" transform="translate(11.7251 8.05994)"/>
</clipPath>
</defs>
</svg>
