<svg width="56" height="16" viewBox="0 0 56 16" fill="none" xmlns="http://www.w3.org/2000/svg">
<g id="Frame 513073">
<path id="Combined-Shape" d="M40.4001 7.23315V16.0003H45.2298V10.8049H50.7034C53.0056 10.7887 54.9616 9.30317 55.7021 7.23315H40.4001Z" fill="#FAFAFA"/>
<path id="Combined-Shape_1_" d="M39.7563 0.00805664C40.0381 3.58797 43.4028 6.42104 47.508 6.42104C47.5241 6.42104 55.9035 6.42104 55.9035 6.42104C55.9679 6.09634 56.0001 5.75539 56.0001 5.40633C56.0001 2.43525 53.6255 0.0324098 50.6875 0.00805664H39.7563Z" fill="#FAFAFA"/>
<path id="Combined-Shape_2_" d="M32.6085 6.33175C32.6648 6.23434 32.7533 6.17751 32.866 6.17751C33.027 6.17751 33.1478 6.3074 33.1558 6.46163V15.9188H37.9855V0.00805664H33.1558C32.5441 0.0324098 31.8518 0.478883 31.5942 1.03901L27.7546 9.35154C27.7466 9.38401 27.7305 9.41648 27.7144 9.44895C27.658 9.53013 27.5615 9.58695 27.4488 9.58695C27.2717 9.58695 27.1268 9.44083 27.1268 9.26224V0.00805664H22.2971V15.9188H27.1268C27.7305 15.8863 28.4066 15.4398 28.6642 14.8878L32.6085 6.3561C32.6004 6.34799 32.6085 6.33987 32.6085 6.33175Z" fill="#FAFAFA"/>
<path id="Combined-Shape_3_" d="M14.5775 6.60781L11.7522 15.9188H8.27483L5.45752 6.5997C5.43338 6.45358 5.30458 6.33993 5.1436 6.33993C4.96651 6.33993 4.82967 6.48605 4.82967 6.65652V15.9107H0V0H4.14546H5.37703C6.26247 0 7.19621 0.698123 7.45379 1.55048L9.80423 9.30289C9.92497 9.69254 10.1101 9.68442 10.2308 9.30289L12.5813 1.55048C12.8389 0.690005 13.7726 0 14.658 0H15.8896H20.0351V15.9107H15.2054V6.65652C15.2054 6.65652 15.2054 6.65652 15.2054 6.6484C15.2054 6.46981 15.0605 6.33181 14.8915 6.33181C14.7305 6.33993 14.6017 6.45358 14.5775 6.60781Z" fill="#FAFAFA"/>
</g>
</svg>
