<svg width="88" height="14" viewBox="0 0 88 14" fill="none" xmlns="http://www.w3.org/2000/svg">
<path id="ozon_bank_line" d="M10.0999 8.5693C10.0999 11.416 7.96389 13.3801 5.04996 13.3801C2.13475 13.3801 4.31818e-06 11.416 4.31818e-06 8.5693C4.31818e-06 5.72257 2.13603 3.75849 5.04996 3.75849C7.96517 3.75849 10.0999 5.72257 10.0999 8.5693ZM29.7811 8.5693C29.7811 11.416 27.6451 13.3801 24.7312 13.3801C21.8172 13.3801 19.6812 11.416 19.6812 8.5693C19.6812 5.72257 21.8172 3.75849 24.7312 3.75849C27.6451 3.75849 29.7811 5.72257 29.7811 8.5693ZM40.0556 7.51571V13.0673H37.6025V8.02858C37.6025 6.57735 36.9093 5.97838 35.7271 5.97838C34.4858 5.97838 33.5911 6.66093 33.5911 8.62629V13.0673H31.138V4.04215H33.5628V5.40852H33.6206C34.2265 4.38406 35.2662 3.75722 36.5936 3.75722C38.5832 3.75849 40.0556 4.83994 40.0556 7.51571ZM77.0336 4.04215V13.0673H74.5805V9.42281H70.6551V13.0673H68.202V4.04215H70.6551V7.31563H74.5805V4.04215H77.0336ZM63.6719 4.04215V5.35154H63.6141C63.1815 4.44104 62.0262 3.75722 60.5552 3.75722C58.1598 3.75722 56.1971 5.46551 56.1971 8.54018C56.1971 11.644 58.1021 13.3801 60.5552 13.3801C62.0558 13.3801 63.1238 12.6963 63.6141 11.8428H63.6719V13.0673H66.125V4.04215H63.6719ZM50.6863 3.9573C49.1857 3.9573 48.0317 4.64113 47.4258 5.72258H47.368C47.454 3.72936 48.1472 2.87585 50.513 2.64791L54.1779 2.306V0L50.1087 0.312785C46.1267 0.625571 44.9432 3.3026 44.9432 7.57269C44.9432 11.359 47.1652 13.3801 50.0509 13.3801C52.9083 13.3801 55.1008 11.359 55.1008 8.54018C55.1008 5.72258 53.1099 3.9573 50.6863 3.9573ZM10.9946 4.04215V6.09235H15.8135L10.8791 11.1311V13.0673H19.0753V11.0171H13.9098L18.8443 5.94925V4.04215H10.9946ZM61.1906 11.1881C59.7182 11.1881 58.767 10.1066 58.767 8.59716C58.767 7.05983 59.7195 5.94925 61.1906 5.94925C62.6617 5.94925 63.6719 7.0307 63.6719 8.56804C63.6719 10.0775 62.6617 11.1881 61.1906 11.1881ZM2.56863 8.5693C2.56863 10.1345 3.54935 11.1602 5.04996 11.1602C6.55057 11.1602 7.53129 10.1358 7.53129 8.5693C7.53129 7.00284 6.55057 5.97838 5.04996 5.97838C3.54935 5.97838 2.56863 7.00284 2.56863 8.5693ZM22.2498 8.5693C22.2498 10.1345 23.2306 11.1602 24.7312 11.1602C26.2318 11.1602 27.2125 10.1358 27.2125 8.5693C27.2125 7.00284 26.2318 5.97838 24.7312 5.97838C23.2306 5.97838 22.2498 7.00284 22.2498 8.5693ZM50.0214 11.1881C48.6081 11.1881 47.5105 10.1345 47.5105 8.5693C47.5105 6.97498 48.6068 6.03536 50.0214 6.03536C51.436 6.03536 52.5322 6.97498 52.5322 8.5693C52.5322 10.1345 51.436 11.1881 50.0214 11.1881ZM84.8832 13.0673L81.565 8.74026V13.0673H79.1119V4.04215H81.565V7.77151L84.6239 4.04215H87.6547L83.9025 8.14128L88 13.0661H84.8832V13.0673Z" fill="#FAFAFA"/>
</svg>
